<?xml version="1.0" encoding="utf-8"?>
<!-- Generator: Adobe Illustrator 28.1.0, SVG Export Plug-In . SVG Version: 6.00 Build 0)  -->
<svg version="1.1" id="Calque_1" xmlns="http://www.w3.org/2000/svg" xmlns:xlink="http://www.w3.org/1999/xlink" x="0px" y="0px"
	 viewBox="0 0 365 90" style="enable-background:new 0 0 365 90;" xml:space="preserve">
<style type="text/css">
	.st0{fill:#D8E3FF;}
	.st1{fill:#231F20;}
	.st2{fill:#504B8E;}
</style>
<circle class="st0" cx="53.5" cy="36.5" r="36.5"/>
<path class="st1" d="M3.4,12c2.2,0.2,4.4,0.7,6.5,2.1c0.5,0.4,1,0.7,1.5,1.2c0.4,0.5,0.9,1,1.3,1.5c0.4,0.5,0.7,0.9,1,1.4
	c5.5,0.4,10.9,1.1,16.3,2.4c3.8,0.8,7.5,2,11.2,3.4c3.2,1.3,6.5,2.9,9.5,5c-9.1-10-18.9-13.6-23.6-15.2C17,10.3,7.9,10.8,1.4,12
	C2.1,12,2.8,12,3.4,12z"/>
<path class="st1" d="M29.6,23.8c-3.7-0.9-7.4-1.5-11.1-2.1c-0.9-0.1-1.8-0.3-2.7-0.4c1.1,1.8,2.1,3.6,3,5.5c0.2,0.4,0.4,0.8,0.6,1.2
	c4.9,0.4,9.8,1,14.6,2.1l2.8,0.7l1.4,0.4l1.4,0.4l2.7,0.9c0.9,0.3,1.8,0.7,2.7,1.1c3.6,1.5,7.1,3.4,10.4,6c2.7,2.1,5.2,4.7,7.1,7.9
	c-1.1-2.7-2.5-5.5-4.1-8.2c-2.1-3-4.7-5.4-7.4-7.3c-3.2-2.2-6.7-3.9-10.3-5.1C37,25.7,33.3,24.6,29.6,23.8z"/>
<path class="st1" d="M54.3,41.9c-3.2-2.2-6.6-4-10.1-5.3l-2.6-1l-2.7-0.8l-1.3-0.4l-1.4-0.3l-2.7-0.7c-3.6-0.8-7.3-1.5-11-1.9
	c-0.6-0.1-1.2-0.2-1.8-0.2c0.4,1,0.9,1.8,1.4,2.6c1.3,1.9,3,3.3,4.8,4.2c0.9,0.5,1.9,0.8,2.9,1.1l3.2,0.9l12.6,3.7l6.3,1.9
	c2.2,0.8,4.2,2.1,6.1,3.8c3.6,3.2,6.3,7.5,8.6,12.1c-0.8-3.9-2.2-7.5-4-10.7C60.5,47,57.5,44.2,54.3,41.9z"/>
<g>
	<path class="st2" d="M98.1,55.2l5.2-4.3c2.1,3,4.9,4.7,8.7,4.8c4,0,6.7-1.7,6.7-4.5c0.1-2.7-3.6-4.2-8.5-6.4
		c-5.8-2.6-8.3-5.8-8.2-10.7c0.2-6.3,4.8-10.2,12.6-10.2c5.6,0,9.8,2,12.2,6.1l-5.3,3.8c-1.6-2.5-3.8-3.5-6.8-3.5
		c-3.4,0-5.2,1.3-5.3,3.7c0,3,3.1,4.6,8.2,6.8c5.6,2.4,8.6,5.6,8.5,10.6c-0.2,6.4-5.7,10.6-14.4,10.6
		C105.2,62.1,100.7,59.7,98.1,55.2z"/>
	<path class="st2" d="M149.3,62.1c-4.8,0-8-4.3-9.1-11c-0.8,0.3-1.6,0.4-2.7,0.7l-1.5,9.7h-7.4l6.2-38.5l7.4-0.7l-3.8,23.8
		c3.7-1.3,7.3-4.8,9.3-9h7.6c-2.4,5.1-5.4,8.7-9,11.1c0.9,5.2,2.6,8.6,5.6,8.6c2.1,0,4.2-1.3,6.5-4.9l2.3,2.6
		C157.5,59.2,153.8,62.1,149.3,62.1z"/>
	<path class="st2" d="M160.8,37.1l7.4-0.7l-2.4,15.1c-0.5,3.6-0.1,5.2,2.3,5.2c2.8-0.1,5.2-2,6.9-4.8l2.3,2.6
		c-3.3,4.8-7.5,7.7-12.5,7.7c-5.2,0-7.4-2.9-6.4-9.6L160.8,37.1z M161.3,29.3c0-2.8,2.1-4.8,4.9-4.8c2.4,0,4.1,1.7,4.1,4
		c0,2.7-2.1,4.7-4.8,4.7C163.1,33.2,161.3,31.6,161.3,29.3z"/>
	<path class="st2" d="M181.5,62.1c-5.4,0-7.7-2.9-6.7-9.6l4.7-29.5l7.4-0.7l-4.6,29.2c-0.5,3.6,0.1,5.2,2.5,5.2c2.8-0.1,5.3-2,7-4.8
		l2.3,2.6C190.8,59.2,186.6,62.1,181.5,62.1z"/>
	<path class="st2" d="M198.6,62.1c-5.4,0-7.7-2.9-6.7-9.6l4.7-29.5l7.4-0.7l-4.6,29.2c-0.5,3.6,0.1,5.2,2.5,5.2c2.8-0.1,5.3-2,7-4.8
		l2.3,2.6C207.9,59.2,203.7,62.1,198.6,62.1z"/>
	<path class="st2" d="M212.7,60.8l0.9-5.1c1.8,0.9,3.1,1.3,4.8,1.3c3,0,4.8-1.4,4.8-4c0-4.2-5.2-6.3-5.9-12.4h-0.1
		c-2.3,4.6-3.5,10-6,13.8l-2.3-2.6c2.6-4.1,3.5-10.5,7.4-15.4l7.5-0.8c-0.5,9,7,10.2,7,17.3c0,1.6-0.3,3.1-1,4.3
		c3.2-0.2,6.1-1.9,8.3-5.4l2.3,2.6c-3.8,5.5-8.2,7.4-15.3,6.8c-1.6,0.6-3.6,0.9-5.8,0.9C216.8,62.1,214.7,61.8,212.7,60.8z"/>
	<path class="st2" d="M275.7,54.8l-1,6.6h-24.5l5.8-36.8l7.6-0.7l-4.8,30.9H275.7z"/>
	<path class="st2" d="M281.2,37.1l7.4-0.7l-2.4,15.1c-0.5,3.6-0.1,5.2,2.3,5.2c2.8-0.1,5.2-2,6.9-4.8l2.3,2.6
		c-3.3,4.8-7.5,7.7-12.5,7.7c-5.2,0-7.4-2.9-6.4-9.6L281.2,37.1z M281.6,29.3c0-2.8,2.1-4.8,4.9-4.8c2.4,0,4.1,1.7,4.1,4
		c0,2.7-2.1,4.7-4.8,4.7C283.4,33.2,281.6,31.6,281.6,29.3z"/>
	<path class="st2" d="M317.4,62.1c-4.4,0-6.4-2.6-5.6-7.6l1.4-8.5c0.4-2.6-0.3-4-2.5-4c-1.8,0-4.3,1.1-7,3.2L301,61.4h-7.3l3.8-24.3
		l7.4-0.7l-0.7,4c3.8-2.6,7-4,10.3-4c4.7,0,6.9,2.8,6.1,7.9l-1.4,8.6c-0.4,2.6,0.1,3.7,1.6,3.7c1.9,0,4.3-1.9,6-4.8l2.3,2.6
		C325.8,59.4,321.9,62.1,317.4,62.1z"/>
	<path class="st2" d="M346,62.1c-4.8,0-8-4.3-9.1-11c-0.8,0.3-1.6,0.4-2.7,0.7l-1.5,9.7h-7.4l6.2-38.5l7.4-0.7l-3.8,23.8
		c3.7-1.3,7.3-4.8,9.3-9h7.6c-2.4,5.1-5.4,8.7-9,11.1c0.9,5.2,2.6,8.6,5.6,8.6c2.1,0,4.2-1.3,6.5-4.9l2.3,2.6
		C354.2,59.2,350.5,62.1,346,62.1z"/>
</g>
</svg>
